<?xml version="1.0"?>
<svg version="1.1" xmlns="http://www.w3.org/2000/svg" width="791" height="155" style=""><path fill="#ffffff" d="M63.132,118.744c0,0.756-0.336,1.26-1.344,1.68c-5.544,2.268-10.584,3.444-16.716,3.444c-17.724,0-26.376-12.516-26.376-29.82c0-17.22,10.332-30.408,27.216-30.408c5.796,0,11.004,1.176,15.792,3.528c1.008,0.504,1.344,0.924,1.344,1.428c0,0.336-0.084,0.672-0.252,1.092l-1.932,5.292c-0.252,0.756-0.672,1.092-1.176,1.092c-0.252,0-0.588-0.168-0.924-0.336c-4.2-2.184-7.98-3.024-12.18-3.024c-11.676,0-16.212,10.752-16.212,20.916c0,12.936,6.048,21.168,16.38,21.168c4.032,0,8.148-0.924,12.096-2.688c0.42-0.168,0.756-0.336,1.008-0.336c0.588,0,1.008,0.42,1.344,1.26l1.68,4.536c0.168,0.42,0.252,0.84,0.252,1.176z M85.518,120.76c0,1.428-0.672,2.1-1.848,2.1l-6.384,0c-1.176,0-1.932-0.588-1.932-2.016l0-55.104c0-1.428,0.588-1.848,1.68-2.016l6.048-0.84c0.168,0,0.42-0.084,0.588-0.084c1.008,0,1.848,0.504,1.848,1.848l0,56.112z M136.716,102.364c0,2.016-0.672,2.436-2.772,2.436l-24.612,0c0.672,6.468,5.376,10.92,12.012,10.92c3.528,0,7.224-0.84,10.332-2.016c0.336-0.084,0.588-0.252,0.924-0.252c0.588,0,1.008,0.336,1.176,1.008l1.176,4.284c0.084,0.42,0.168,0.756,0.168,1.008c0,0.588-0.336,1.008-1.344,1.428c-4.116,1.848-9.744,2.688-14.112,2.688c-13.188,0-21-8.4-21-21.504c0-12.6,8.316-21.336,20.832-21.336c5.124,0,9.324,1.932,12.264,5.04c3.864,4.032,4.956,9.324,4.956,15.036l0,1.26z M126.72,98.164l0-0.924c-0.168-4.368-2.688-8.4-7.812-8.4c-5.46,0-8.736,4.368-9.408,9.324l17.22,0z M188.922,121.264c0,1.008-0.672,1.596-1.68,1.596l-4.032,0c-4.368,0-6.3-2.1-6.888-4.956l-0.168,0c-2.1,3.108-7.56,5.964-12.18,5.964c-11.844,0-17.22-9.744-17.22-20.664c0-14.532,8.736-22.176,18.144-22.176c4.452,0,8.652,2.016,10.752,4.872l0.168-2.268c0.084-0.924,0.756-1.512,1.764-1.512l5.88,0c1.092,0,1.764,0.588,1.764,1.848l0,29.148c0,1.176,0.168,2.016,0.504,2.436c0.252,0.252,0.588,0.336,1.008,0.336l0.672,0c1.008,0,1.512,0.336,1.512,1.428l0,3.948z M175.062,109.84l0-16.212c-1.68-2.436-5.124-4.284-8.316-4.284c-5.124,0-9.492,4.368-9.492,13.188c0,7.056,2.688,13.02,8.904,13.02c4.116,0,7.644-3.108,8.904-5.712z M237.768,120.676c0,1.428-0.504,2.184-2.016,2.184l-6.048,0c-1.512,0-2.016-0.756-2.016-2.184l0-22.848c0-4.62-1.26-7.896-6.384-7.896c-3.276,0-7.308,1.764-9.912,4.032l0,26.796c0,1.428-0.588,2.1-2.016,2.1l-6.132,0c-1.26,0-2.016-0.672-2.016-2.016l0-36.624c0-1.344,0.588-2.1,2.1-2.1l5.46,0c1.176,0,1.932,0.336,2.016,1.596l0.084,2.184c3.864-3.108,8.736-4.872,13.608-4.872c9.408,0,13.272,5.88,13.272,15.036l0,24.612z M264.69,71.452c0,3.276-2.856,5.292-5.628,5.292s-5.712-1.848-5.712-5.208s2.772-5.376,5.712-5.376c2.856,0,5.628,1.932,5.628,5.292z M264.186,120.76c0,1.512-0.672,2.1-2.1,2.1l-5.88,0c-1.512,0-2.184-0.588-2.184-2.1l0-36.708c0-1.428,0.84-1.932,2.184-1.932l5.88,0c1.344,0,2.1,0.42,2.1,1.932l0,36.708z M316.812,120.676c0,1.428-0.504,2.184-2.016,2.184l-6.048,0c-1.512,0-2.016-0.756-2.016-2.184l0-22.848c0-4.62-1.26-7.896-6.384-7.896c-3.276,0-7.308,1.764-9.912,4.032l0,26.796c0,1.428-0.588,2.1-2.016,2.1l-6.132,0c-1.26,0-2.016-0.672-2.016-2.016l0-36.624c0-1.344,0.588-2.1,2.1-2.1l5.46,0c1.176,0,1.932,0.336,2.016,1.596l0.084,2.184c3.864-3.108,8.736-4.872,13.608-4.872c9.408,0,13.272,5.88,13.272,15.036l0,24.612z M368.682,120.088c0,13.608-5.796,21.168-19.908,21.168c-4.116,0-8.4-0.84-12.432-2.604c-0.924-0.42-1.344-0.924-1.344-1.68c0-0.42,0.168-0.756,0.252-1.092l1.176-3.696c0.336-0.924,0.672-1.512,1.26-1.512c0.42,0,0.84,0.168,1.26,0.336c3.024,1.26,6.468,2.184,9.408,2.184c8.4,0,10.164-4.452,10.164-11.172l0-3.36c-2.52,2.436-7.224,4.284-10.92,4.284c-5.208,0-9.408-1.68-12.348-4.788c-3.528-3.612-5.292-9.072-5.292-15.204c0-11.256,6.552-21.84,18.732-21.84c2.016,0,4.116,0.504,6.048,1.344c1.596,0.672,3.276,1.932,4.284,3.36l0.168-2.184c0.084-1.092,0.672-1.512,1.932-1.512l5.544,0c1.512,0,2.016,0.588,2.016,2.016l0,35.952z M358.518,110.68l0-17.304c-1.68-2.268-4.956-4.116-8.148-4.116c-2.604,0-4.704,1.008-6.216,2.436c-2.604,2.52-3.612,6.804-3.612,10.668c0,3.696,0.84,7.644,3.36,10.08c1.512,1.512,3.696,2.268,5.964,2.268c3.276,0,6.972-1.932,8.652-4.032z M423.156,83.044c0,13.02-9.828,19.404-22.176,19.404c-0.672,0-4.452-0.168-5.04-0.252l0,18.648c0,1.26-0.504,2.016-2.1,2.016l-6.72,0c-1.344,0-2.016-0.588-2.016-2.268l0-53.592c0-1.68,0.504-2.268,2.1-2.268l12.18,0c8.904,0,15.456,1.68,19.572,6.384c2.688,3.108,4.2,7.392,4.2,11.928z M412.236,83.464c0-7.644-4.704-10.332-11.928-10.332l-4.368,0l0,20.832c0.672,0,4.452,0.084,4.956,0.084c7.14,0,11.34-3.36,11.34-10.584z M458.982,82.456c0,0.252,0,0.504-0.084,0.756l-0.924,5.964c-0.084,0.756-0.504,1.092-1.176,1.092l-0.336,0c-0.672-0.168-1.512-0.252-2.268-0.252c-2.856,0-5.964,1.512-8.064,4.032l0,26.712c0,1.344-0.588,2.1-2.016,2.1l-6.132,0c-1.344,0-2.016-0.672-2.016-2.1l0-26.208l0-10.332c0-1.68,0.84-2.1,2.1-2.1l5.376,0c1.344,0,2.1,0.42,2.1,1.596l0.084,2.688c2.604-3.276,5.46-5.376,10.164-5.376c0.672,0,1.596,0.168,2.352,0.336c0.588,0.168,0.84,0.42,0.84,1.092z M507.996,102.448c0,12.096-7.392,21.42-20.496,21.42c-13.692,0-19.992-9.24-19.992-21.504c0-12.096,7.392-21.336,20.496-21.336c13.692,0,19.992,9.072,19.992,21.42z M497.496,102.448c0-6.888-2.184-13.44-9.576-13.44c-7.476,0-9.912,6.468-9.912,13.188c0,6.888,2.1,13.692,9.576,13.692c7.392,0,9.912-6.552,9.912-13.44z"/><path fill="#000000" d="M567.519,87.648q-2.183,0.885-3.7465,0.885t-1.5635-0.649q0-0.413,1.7405-0.472t2.5075-0.413q2.242-1.18,2.242-3.481q0-1.18-0.649-2.478q-1.888-3.363-9.145-3.363q-4.189,0-8.378,1.2685t-7.021,3.894t-2.832,4.8675q0,3.422,6.785,5.015l6.962,1.298q4.189,0.767,6.254,2.124q2.714,1.652,2.714,4.72q0,1.239-0.413,2.655q-1.888,6.372-9.735,9.735q-6.549,2.891-15.458,2.891q-2.537,0-4.425-0.236q1.888,1.062,4.956,1.829q0.236,0.059,0.236,0.236q0,0.531-1.239,0.531q-2.419,0-6.018-2.891q-4.897-0.767-7.316-2.714q-1.534-1.239-2.832-3.658t-1.298-4.366t0.767-3.245q1.77-3.127,4.484-3.127q2.065,0,2.419,3.481q0.826,6.726,1.121,7.67q0.885,2.891,3.009,4.897q2.478,0.531,5.369,0.531q6.372,0,12.508-2.537t8.85-7.198q1.121-1.829,1.121-3.245q0-2.773-4.897-4.307l-10.384-2.36q-3.186-0.767-5.1035-2.537t-1.9175-4.071q0-3.54,4.425-7.08q3.363-2.714,8.2305-4.2185t9.558-1.5045t7.7585,1.357q3.953,1.829,3.953,5.3395t-3.599,4.9265z M529.523,113.962q-3.422-3.776-4.366-10.325q-0.531-3.717-1.003-3.717t-0.885,0.2655t-0.826,1.1505t-0.413,2.301q0,4.543,3.186,7.788q1.593,1.652,4.307,2.537z M570.59703,113.667q-0.649,0-1.18-0.177q-3.776-1.062-3.776-4.248q0-4.13,5.192-9.558t9.322-5.428q1.357,0,2.2125,0.7375t0.8555,1.7995q0,3.304-4.9855,6.313t-8.1125,3.009q-0.472,0-0.826-0.118q-0.885,1.593-0.885,3.363q0,3.068,2.9205,3.068t7.5815-3.953q3.599-2.891,6.136-6.136q0.531-0.708,0.9145-0.708t0.3835,0.354t-0.472,1.003q-3.186,4.189-7.67,7.434t-7.611,3.245z M581.74803,96.675q0-0.708-1.5045-0.708t-4.2775,2.301q-3.717,3.068-5.782,6.431q0.354,0.118,0.767,0.118q2.242,0,5.9885-2.3895t4.6905-5.2215q0.118-0.295,0.118-0.531z M597.39306,113.195q-4.425,0-4.425-4.897q0-2.478,1.298-5.428t2.832-4.956q-0.295,0.059-0.767,0.059q-1.416,0-2.36-2.006l-4.366,5.664q-3.658,4.543-4.248,4.543q-0.295,0-0.295-0.236q0-0.59,1.003-1.711q5.133-5.959,7.257-10.089q1.357-5.133,3.422-5.133q1.357,0,1.357,1.18t-1.475,3.009l-1.416,1.888q0,1.239,1.829,1.239q1.062,0,2.36-0.767l1.534-0.944q0.118-0.059,0.59-0.059t1.003,0.59t0.354,1.062l-4.071,5.133q-3.776,4.838-3.776,7.6405t2.596,2.8025q2.714,0,6.667-2.891q2.36-1.711,4.307-3.835q1.829-2.124,2.006-2.124q0.413,0,0.413,0.4425t-0.531,1.0325l-1.888,2.124q-1.593,1.652-3.54,3.186q-4.661,3.481-7.67,3.481z M627.19809,89.713q1.77,0,3.009,1.18t1.239,3.304q0,4.661-7.729,11.682q-6.549,5.9-10.561,7.198q-0.649,0-1.711-0.708t-1.062-1.298q0-1.298,2.832-8.791t3.894-8.378q0.236-0.236,0.767-0.236t1.121,0.5605t0.649,1.3275q0,0.059-2.9205,6.844t-2.7435,8.083q2.537-0.767,9.0565-6.195t6.5195-9.735q0-2.596-2.596-3.776q-0.413-0.177-0.413-0.531q0-0.531,0.649-0.531z M646.05862,89.3885q0.7965,0.5605,0.7965,1.3275t-0.7375,1.3275t-1.6225,0.5605t-1.6225-0.649t-0.7375-1.475q0-1.652,2.242-1.652q0.885,0,1.6815,0.5605z M633.69812,113.549q-3.009,0-3.009-3.894q0-3.186,3.481-8.8205t5.605-5.6935q0.59,0,1.3275,0.472t0.7375,0.944q-0.295,0.413-0.708,0.9145t-0.885,1.0915t-1.298,1.6815t-1.593,2.0945q-4.425,5.723-4.425,7.8765t1.475,2.1535q1.239,0,3.363-1.357q4.956-3.068,7.847-6.726q1.062-1.357,1.4455-1.357t0.3835,0.472t-1.357,1.888t-2.1535,2.242t-1.0915,1.0915t-1.0915,1.003t-1.2095,1.0325t-1.18,0.885t-1.357,0.8555t-1.357,0.6195q-1.239,0.531-2.95,0.531z M651.99815,113.667q-0.649,0-1.18-0.177q-3.776-1.062-3.776-4.248q0-4.13,5.192-9.558t9.322-5.428q1.357,0,2.2125,0.7375t0.8555,2.006t-0.767,2.655t-2.301,1.3865t-1.534-0.944q0-0.649,0.7965-1.9765t0.7965-1.416t-0.177-0.0885q-1.652,0.177-4.5135,2.36t-3.9235,3.658l-2.301,3.363q-0.59,0.944-0.8555,2.242t-0.2655,1.947t0.7375,1.475t2.0945,0.826q2.95,0,7.316-3.4515t6.726-6.5785q0.295-0.354,0.708-0.354t0.413,0.236t-0.295,0.59q-3.245,4.307-7.7585,7.5225t-7.5225,3.2155z M669.82618,113.667q-0.649,0-1.18-0.177q-3.776-1.062-3.776-4.248q0-4.13,5.192-9.558t9.322-5.428q1.357,0,2.2125,0.7375t0.8555,1.7995q0,3.304-4.9855,6.313t-8.1125,3.009q-0.472,0-0.826-0.118q-0.885,1.593-0.885,3.363q0,3.068,2.9205,3.068t7.5815-3.953q3.599-2.891,6.136-6.136q0.531-0.708,0.9145-0.708t0.3835,0.354t-0.472,1.003q-3.186,4.189-7.67,7.434t-7.611,3.245z M680.97718,96.675q0-0.708-1.5045-0.708t-4.2775,2.301q-3.717,3.068-5.782,6.431q0.354,0.118,0.767,0.118q2.242,0,5.9885-2.3895t4.6905-5.2215q0.118-0.295,0.118-0.531z M695.44221,112.015q-1.711,1.003-4.2185,1.003t-3.835-1.652t-2.2715-5.251q-1.062,1.062-1.475,1.062q-0.295,0-0.295-0.413t0.295-0.708q1.947-2.419,6.608-6.962l7.434-6.962q3.186-3.009,3.776-3.009q1.888,0,1.888,1.416q0,0.708-0.5605,1.3865t-0.826,1.062t-0.5605,0.7375q-1.062,1.829-2.1535,7.552t-1.6815,7.965q4.897-0.059,10.089-6.372q0.59-0.59,0.885-0.59t0.295,0.3835t-0.531,1.0325q-3.422,4.012-6.372,5.605q-1.77,0.885-4.602,1.475z M687.47721,105.466q0,2.006,1.3275,3.2745t2.9795,1.2685t2.537-0.649q1.18-0.649,2.3305-5.428t1.3865-8.437l0.236-2.006q-3.245,2.419-6.9325,6.254t-3.8055,5.074q-0.059,0.354-0.059,0.649z"/></svg>
